<?xml version="1.0" encoding="utf-8"?>
<!-- Generator: Adobe Illustrator 28.1.0, SVG Export Plug-In . SVG Version: 6.00 Build 0)  -->
<svg version="1.1" id="Layer_1" xmlns="http://www.w3.org/2000/svg" xmlns:xlink="http://www.w3.org/1999/xlink" x="0px" y="0px"
	 viewBox="0 0 156 35" style="enable-background:new 0 0 156 35;" xml:space="preserve">
<style type="text/css">
	.st0{fill:#0788FF;}
	.st1{fill:#FFFFFF;}
</style>
<path class="st0" d="M7.8,50.7h29c1.7,0,3,1.3,3,3v29c0,1.7-1.3,3-3,3h-29c-1.7,0-3-1.3-3-3v-29C4.8,52.1,6.1,50.7,7.8,50.7z"/>
<g>
	<g>
		<path class="st1" d="M50,72.9h6.9l8,26.1h-6.1l-3.3-13.2c-0.7-2.6-1.4-5.7-2.1-8.4h-0.2c-0.6,2.8-1.3,5.8-2,8.4L47.8,99h-5.9
			L50,72.9z M47.2,88.2h12.3v4.6H47.2V88.2z"/>
		<path class="st1" d="M67.6,72.9h5.8V94h10.1V99H67.6V72.9z"/>
		<path class="st1" d="M92.7,72.9h6.9l8,26.1h-6.1l-3.3-13.2c-0.7-2.6-1.4-5.7-2.1-8.4h-0.2c-0.6,2.8-1.3,5.8-2,8.4L90.5,99h-5.9
			L92.7,72.9z M89.9,88.2h12.3v4.6H89.9V88.2z"/>
		<path class="st1" d="M110.3,72.9h6.3l4.1,11.6c0.5,1.5,1,3.2,1.5,4.8h0.2c0.5-1.6,0.9-3.3,1.5-4.8l4-11.6h6.3V99h-5.3v-9.6
			c0-2.5,0.5-6.3,0.7-8.9h-0.2l-2.1,6.2l-3.6,10h-3.2l-3.6-10l-2-6.2h-0.2c0.3,2.5,0.7,6.3,0.7,8.9V99h-5.2V72.9z"/>
		<path class="st1" d="M144.9,72.9h6.9l8,26.1h-6.1l-3.3-13.2c-0.7-2.6-1.4-5.7-2.1-8.4h-0.2c-0.6,2.8-1.3,5.8-2,8.4L142.8,99h-5.9
			L144.9,72.9z M142.2,88.2h12.3v4.6h-12.3V88.2z"/>
	</g>
</g>
<g>
	<g>
		<path class="st1" d="M12.1,78.2l3.4-4c1.9,1.6,4.3,2.7,6.4,2.7c2.5,0,3.7-1,3.7-2.5c0-1.6-1.5-2.2-3.8-3.1l-3.4-1.4
			c-2.7-1.1-5.3-3.3-5.3-7.1c0-4.3,3.9-7.8,9.3-7.8c3,0,6.1,1.2,8.4,3.4l-3,3.7c-1.7-1.3-3.3-2-5.4-2c-2,0-3.3,0.8-3.3,2.3
			c0,1.6,1.7,2.2,4,3.1l3.3,1.3c3.2,1.3,5.2,3.4,5.2,7.1c0,4.3-3.6,8.1-9.8,8.1C18.4,82,14.8,80.7,12.1,78.2z"/>
	</g>
</g>
</svg>
