<svg xmlns="http://www.w3.org/2000/svg" width="880" height="290" viewBox="0 0 880 290" role="img">
<defs><linearGradient id="g" x1="0" y1="0" x2="1" y2="0">
<stop offset="0%" stop-color="#8b5cf6"/><stop offset="100%" stop-color="#06b6d4"/>
</linearGradient></defs>
<rect width="880" height="290" rx="14" fill="#0B0F14"/>
<text x="24" y="32" font-family="-apple-system,BlinkMacSystemFont,'Segoe UI',Roboto,Helvetica,Arial,sans-serif" font-size="12" font-weight="700" fill="#8B949E" letter-spacing="1.6">WHAT I HAVE BUILT, BY DOMAIN</text>
<text x="24" y="73" font-family="-apple-system,BlinkMacSystemFont,'Segoe UI',Roboto,Helvetica,Arial,sans-serif" font-size="13" fill="#E6EDF3">Developer utilities</text>
<rect x="250" y="60" width="560" height="18" rx="9" fill="#131A22"/>
<rect x="250" y="60" width="560" height="18" rx="9" fill="url(#g)"/>
<text x="820" y="73" font-family="-apple-system,BlinkMacSystemFont,'Segoe UI',Roboto,Helvetica,Arial,sans-serif" font-size="12" font-weight="700" fill="#8B949E">7</text>
<text x="24" y="107" font-family="-apple-system,BlinkMacSystemFont,'Segoe UI',Roboto,Helvetica,Arial,sans-serif" font-size="13" fill="#E6EDF3">Business &amp; commerce sites</text>
<rect x="250" y="94" width="560" height="18" rx="9" fill="#131A22"/>
<rect x="250" y="94" width="480" height="18" rx="9" fill="url(#g)"/>
<text x="740" y="107" font-family="-apple-system,BlinkMacSystemFont,'Segoe UI',Roboto,Helvetica,Arial,sans-serif" font-size="12" font-weight="700" fill="#8B949E">6</text>
<text x="24" y="141" font-family="-apple-system,BlinkMacSystemFont,'Segoe UI',Roboto,Helvetica,Arial,sans-serif" font-size="13" fill="#E6EDF3">Mobile &amp; productivity</text>
<rect x="250" y="128" width="560" height="18" rx="9" fill="#131A22"/>
<rect x="250" y="128" width="320" height="18" rx="9" fill="url(#g)"/>
<text x="580" y="141" font-family="-apple-system,BlinkMacSystemFont,'Segoe UI',Roboto,Helvetica,Arial,sans-serif" font-size="12" font-weight="700" fill="#8B949E">4</text>
<text x="24" y="175" font-family="-apple-system,BlinkMacSystemFont,'Segoe UI',Roboto,Helvetica,Arial,sans-serif" font-size="13" fill="#E6EDF3">Community platforms</text>
<rect x="250" y="162" width="560" height="18" rx="9" fill="#131A22"/>
<rect x="250" y="162" width="240" height="18" rx="9" fill="url(#g)"/>
<text x="500" y="175" font-family="-apple-system,BlinkMacSystemFont,'Segoe UI',Roboto,Helvetica,Arial,sans-serif" font-size="12" font-weight="700" fill="#8B949E">3</text>
<text x="24" y="209" font-family="-apple-system,BlinkMacSystemFont,'Segoe UI',Roboto,Helvetica,Arial,sans-serif" font-size="13" fill="#E6EDF3">AI &amp; conversational systems</text>
<rect x="250" y="196" width="560" height="18" rx="9" fill="#131A22"/>
<rect x="250" y="196" width="160" height="18" rx="9" fill="url(#g)"/>
<text x="420" y="209" font-family="-apple-system,BlinkMacSystemFont,'Segoe UI',Roboto,Helvetica,Arial,sans-serif" font-size="12" font-weight="700" fill="#8B949E">2</text>
<text x="24" y="243" font-family="-apple-system,BlinkMacSystemFont,'Segoe UI',Roboto,Helvetica,Arial,sans-serif" font-size="13" fill="#E6EDF3">Infrastructure &amp; networking</text>
<rect x="250" y="230" width="560" height="18" rx="9" fill="#131A22"/>
<rect x="250" y="230" width="80" height="18" rx="9" fill="url(#g)"/>
<text x="340" y="243" font-family="-apple-system,BlinkMacSystemFont,'Segoe UI',Roboto,Helvetica,Arial,sans-serif" font-size="12" font-weight="700" fill="#8B949E">1</text>
</svg>